# xmcd CD database file
#
# Track frame offsets:
#	150
#	29676
#	51127
#	82947
#	126783
#	161163
#	206088
#	227478
#
# Disc length: 3452 seconds
#
# Revision: 0
# Processed by: cddbd v1.5.2PL0 Copyright (c) Steve Scherf et al.
# Submitted via: CDex 1.51
#
DISCID=650d7a08
DTITLE=Danilo Memoli - Amapola
DYEAR=2007
DGENRE=Jazz
TTITLE0=Trill
TTITLE1=Amapola
TTITLE2=Blue Rose
TTITLE3=Haresah
TTITLE4=El Cahon
TTITLE5=Ode To Elvin
TTITLE6=Isfahan
TTITLE7=I Remember You
EXTD=YEAR: 2007
EXTT0=
EXTT1=
EXTT2=
EXTT3=
EXTT4=
EXTT5=
EXTT6=
EXTT7=
PLAYORDER=
